<?xml version="1.0" encoding="utf-8"?>
<svg xmlns="http://www.w3.org/2000/svg" width="32" height="32" viewBox="0 0 32 32">
  	<path d="m 21.384615,13.8462 q 0,-3.113 -2.21274,-5.3258 -2.21274,-2.2127 -5.325721,-2.2127 -3.112981,0 -5.325721,2.2127 -2.212741,2.2128 -2.212741,5.3258 0,3.1129 2.212741,5.3257 2.21274,2.2127 5.325721,2.2127 3.112981,0 5.325721,-2.2127 2.21274,-2.2128 2.21274,-5.3257 z M 30,27.8462 q 0,0.875 -0.639423,1.5144 Q 28.721154,30 27.846154,30 26.9375,30 26.331731,29.3606 l -5.771635,-5.7548 q -3.012019,2.0865 -6.713942,2.0865 -2.40625,0 -4.602164,-0.9339 Q 7.048077,23.8245 5.457933,22.2344 3.867788,20.6442 2.933894,18.4483 2,16.2524 2,13.8462 2,11.4399 2.933894,9.244 3.867788,7.0481 5.457933,5.4579 7.048077,3.8678 9.24399,2.9339 11.439904,2 13.846154,2 q 2.40625,0 4.602163,0.9339 2.195914,0.9339 3.786058,2.524 1.590144,1.5902 2.524038,3.7861 0.933895,2.1959 0.933895,4.6022 0,3.7019 -2.086539,6.7139 l 5.771635,5.7716 Q 30,26.9543 30,27.8462 Z" fill="#bebebe" />
</svg>
